<?xml version="1.0" encoding="utf-8"?>
<!-- Generator: Adobe Illustrator 26.3.1, SVG Export Plug-In . SVG Version: 6.00 Build 0)  -->
<svg version="1.1" id="Layer_1" xmlns="http://www.w3.org/2000/svg" xmlns:xlink="http://www.w3.org/1999/xlink" x="0px" y="0px"
	 viewBox="0 0 220 220" style="enable-background:new 0 0 220 220;" xml:space="preserve">
<path d="M45.8,55c-5.1,0-9.2,4.1-9.2,9.2v91.7c0,5.1,4.1,9.2,9.2,9.2h128.3c5.1,0,9.2-4.1,9.2-9.2V64.2c0-5.1-4.1-9.2-9.2-9.2H45.8z
	 M45.8,36.7h128.3c15.2,0,27.5,12.3,27.5,27.5v91.7c0,15.2-12.3,27.5-27.5,27.5H45.8c-15.2,0-27.5-12.3-27.5-27.5V64.2
	C18.3,49,30.6,36.7,45.8,36.7z"/>
</svg>
